<?xml version="1.0" encoding="UTF-8"?>
<svg id="panzoom-element"
     class="whole-svg-area"
     xmlns="http://www.w3.org/2000/svg" viewBox="0 0 799 412">
  <defs>
    <style>
      .cls-1, .cls-2 {
        fill: gray;
        stroke: #fff;
        stroke-linecap: round;
        stroke-linejoin: round;
      }

      .cls-2 {
        fill-rule: evenodd;
      }

      .cls-3 {
        fill: #fff;
        stroke: #000;
        stroke-miterlimit: 10;
      }
    </style>
  </defs>
  <g>
    <path class="cls-1" d="m683.82,335.98l.47-.19-.15-.18.67-1.19-.54-.55.72-1.42-.03-2.47.41-1.58,1.86-1.42.47-.03.03-1.58,1.06-1.15.49.22,1.02-.71.12-1.83.71-1.68,2.65.07-.11-2.97.54-1.16.36-.05.53-.77-.28-.91.31-.16.33-1.09.55-.04.27-1.65,1.38-.7,1.96.54.24-.3-.66.05.02-.81-.36-.14.23-.29-.57.47-.16-.8-.41.08.12-.31-.45-.38.5-.33-.99-.4.16-.57-.82-.46.02-.55-.58-.31.42.06.02-.5-.26.13-.16-.38-.65-.1.12-.2.47.23.15-.25-.26-.26-.43.1-.07-.5.43-.22-.21-.34.53-.18-.4-.19.32-.11-.02-.45-.44-.62-.62.03-.76-1.83-.8.32.2-.26-.43-.27-.26-1.05-.7-.75.3-.21-.23-.73.28-.28-.43-.85.78-.97-.39-.7.15-1.67.33-.08-.1-.55.75.1.31-.32-.06-.39.4-.3-.23-.3.23-.99.6-1.02-.07-1.12-.25-.06.45-.46-.24-.07-.22-1.79-.23-.08.26-.75-.51-.76.13-.31-.39-.21.23-.09-.3-.1-.1-.79.31-.05-.25-.05-.11-.82-.35-.14.12-.49-.5-.24.23-.2-.44-.35v-.63s-.43-.07-.43-.07l.32-.13-.57-.36.19-.17-.27-.4.33-.12-.45-.38.15-.46-.58-.27-.03-.79.3-.29-.35.04.02-.69-.28-.19.21-.15-.29-.34-.33.14.18-.6h.44s.1-.61.1-.61l-.35-.13.49-1.25-.38-.51.13-.43-.35.11.28-.43-.49-.14.26-.31-.63-.95.46-.3-.61-.78.04-.81-.35-.04.22-.07-.16-.49-1.03-1.06.1-.45-.36-.07.32-.69-.32-.23.11-.35-.62-.14.35-.32-.27-.6.26-.45-.5-.34.11-1.33-.36-.31-.21.26-.11-.34-.25.19-.12-.3.43-.09-.33-.07.2-.54-.59-.61.23-.54-.23-.07.35-.35-.96-.88.1-.63-.86-.09.2-.12-.31-.33.35-.21-.47-.05.33-.36-.38-.16.11-.66-.34.3-.44-.51.19-.32-.25.04-.23-.54-.36.23v-.32s-.63-.47-.63-.47l1.96-.85-.45-1.09,3.52-1,.04-1.42.68-1.58.7-.19.58-.64.41.32.76-.29.16.34-.9.22.16.71-.74.55,1.17,1.07,1-.86.43.07-.2-.64.25-.44-.29.06-.53-.84.08-1.19,2.65.21,2.43-1.14,2.28-.52.66-.25,2.26.15,2.54-.87,1.81-1.58.12-.81.68-.36.67-1.09.8-.22.84-.69.9.23,1.04-1.53,1.14-.4.26-1.18-.9-.49,1.32-.36.47-.48.14-.47-.42-.45,1.61-1.44-.21-.41.82-.88.52-1.59-.27-1.52-.76-.32-.89-1.6-1.43-1.03.59-2.17-.32-.83,1.68-2.75-.08-2.61.97-.63.49.04.88-1.02-.59-1.07.63-.62,1.48-.21.3-.39.06-.64-.53-1.26.47-1.08-2.33-4.34.45-1.3-.69-.15-1.71.39-1.75-1.06-.91-.17.18-1.01-.66-.53-.28-1.5-1.11-1.73-.21-1.59.12-1.17.39-.61-.27-.68.5-.69v-1.7s-.69-1.29-.69-1.29l.92-2.6-2.62-1.1-.38-.04-.12.41-.55-.09-.04-.6.96-2.45.75-.18,2.43.55.61.37-.71.24.36,1-.32.95.88.93.78-.59.81-1.95.88-.41.34.24.43-.56.13-1.99.93-.83,1.86-.77-.57-.56,1.61-1.84-.22-.42-4.1-3.38.81.28.72-.61.69-.08,1.29-.82.09-.55.57-.47,1.22.83,1.24-.9-.47-.43.8-.98-.7-.32.55-.48.52.13.25-1.25-.35-.51.46-.89-.39.11-.17-.31.81-.42-.04-.63,1-1.26.88-.37.29-.65.64-.12,1.2-.88.4.4.92-.07,1.02-.91,1.44.31.22.33.05-.32.78-.19-.06-.34h.61s.56,1.36.56,1.36l2.49,3.01.7.41.42,1.43.97.4.58.62.4,1.39.46-.2,1.13-2.23,1.1-.67,2.33-3.33.76-.51-.25-1.53.25-.98,1.95-.63-.12-1.01.76-.87.59.64.84-.58.92.04,1.78-1.08-.04-.68.32-.28-.74-1.38-.06-.74.05-.28.54.04-.03-3.82.28.4.73-.5,1.44.48.52-.34.4.24.44-.22-.19-.22.23-.21-.26-.07.9.07-.05-.24.85.45.09-.38.55.08.11-.33.17.19,1.95-1.43.47.36.81-.39.51-.95.22.26.08-.27.75.11-.08-.26.42.22.29-.38,1.25.28,1.02-.74-.14-.74-.5-.25-.36.18.23-.6.43-.44.46-.17.1.21.61-1.93.94.26-.11-.26.36-.25-.18-.44.4.09-.15-.48.41-.07.93-1.39.92.6.42-.23.33-.8.63.29.05-.28.22.39,1.92.56.38.62-.47,1.05.49.87,3.11.44,2.1.88.67.86-.34-.12-.23,1.55.34-.1.13.49h.62s.72-.92.72-.92l.89-3.65,1.94-3.46-4.22-3.06-.96-.13.65-1.48.33.27.35-.15.34-.43-.03-.74,1.27.38.78,1.59.76-.86.82-.29.88.9-2.61,1.19,3.53,1.13.43-2.71,2.27-1.37-.22-.52.45-.87.66.61.44-.11-.4.77.66.34-.16.31,1.63.9-.49.5.6.77-.37-.11-1.52,1.05.06.51-.33.28.78.38-.63,1.24,1.54.71-1.84,1.64,1.69.69.4.71-2,2.31,2.41,1.69,2.01-1.87,1.81,1.5.98-.35.8.38,1.86,2.01-2.66,2.09-3.93,3.78,2.39,1.43-2.51,4.23,2.32.98-.91,2.67-.7.99.93.73-1.79,3.94-.49.02-.3-.47-2.98,1.02.1.28-.97.55-2.33-.13-.74,1.59,4.48,2.96-.47.8.33.24-.27.46,1.49.8-.1.41,1.63,1.76-2.1,1.76-.24.56.81,1.18.34,1.3.31-.04.41,1.58.52,2.7.11,3.36,2.53,2.98-5.47.86-6.61,1.85-6.62,1.36-3.91.07-.38-.25-.71-4.86-1.12,1.69-1.67,1.08-.97,3.43-8.27.57-3.15-6.24-.15-1.97-6.6-.94-.22.26-1.74-.95-.64-1.65-.9.37-1.72-.46-1.06.7-.67-.43-.45.58-2.22.69-1.93.09-.2.35.34.94-1.15.54-.1.53,1.74,2.11-1.1,1.65-1.4.34-.74-.26-.35.84h-.62s-.67.58-.67.58l-.47-.17-.61.96-.75.23-.16.93-.86.21-.1,1.41-.41-.16-.47.26-.47-.27-.92-2.15-.69.11-.28,3.45-2.22,1.45,1.97,1.26,1.21.1,1.2.64,1.82.14.82,1.23.55-.1.47.43,1.01.11.78-1.23.94.72.59-.06,2.14,1.13,2.57,2.02,2.18.22,3.75-1.75,2.37.71.89,2.57,1.43.11-.65,1.37,1.03,2.67-.37,1.17-.81.45.16.37.84.97,1.23-.29.52.26,1.07,2.1.62-.05.2.52.56-.14.37.48-1.15,1.08.32,1.59-1.01.78-.55,1.22-2.15,1.16-.71-.82-1,1.39,2.07,3.96-1.02,1.97.26.94-1.33.73.28.36-.55.38-1.04.17-.89.61-.68,1.79-.54-.23-.28.37-.08-.24-1.52,1.46-.94.02v.22s.37-.03.37-.03l-.24.33-.83.05-.17.23.37.15-.04.27-.73.45.26.43-.16.49-3.08.25-.7-.66-1.36.27-.21-.26h-.85l-.31.85-.61.05.28,1.31-1.36,1.22-.05-1.13-.8.32.06-.82-.6.3.1-.67.57-.55-.59-.48-1.13.03-1.75-.56-1.29.96.5,1.92,1.32,1.71-.66-.03-.37.63.63,1.32v.72s-.54.85-.54.85l.15.61-.62-.04-1.31.78,1.18.94.44,1.05.96.02.78.79-.13.44.6.88.11,1.01.63.99.83,2.2.06.97.85,1.7-1.03.39-.19.89.33,1.5-1.28,1.55-.66-.46-1.51.47.24.44-1.8-.31-.12.41,1.2.22.2,2.29-.14.53-.32.09-.11,1.13.3.72-.43.37.2.87h-.86s-.53.4-.53.4l-.48-.43-.18.83.51,1.23-.18.37,1.1,1.54,1.26-.12.98-.53.45.13-.19.18.51,1.45.79,1.3-.38.22.04,1.2-.24.3-.54-.05-.39.92.12.97.49.48,1.57-.14,2.21-1.02,2.77-.19.68,1.42.66.39.12,1.55-3.08.72.17,2.04-1.87.3.24.95-.75.21-.33-.57-.19.73-.84.28.2.49-.31.13.31.87.95.58-.36,1.11.24.71,1-.26.53.93.91-.29,1.54.59,1.13.69.04.83-1.43,1.08-.61-.15-.32.36-2.31.35-.73.58-.79.02-.51.5-1.21.3-.46.44.42.21-.52.75.98,1.05,1.62-1.54,1.24.71.32.91.46-.22.19.71.99,1.18,2.14.94v.3s-.69.22-.69.22l-.18-.21-.72.58-.85-.3-.22.73-.79.32-.59-.52-1.07.09-.42-.71-.38.12-.54-.48-.56.3v1.44s-1.39.14-1.39.14l-1.35-.5-.81-1.28-2.02.3-1.07.74-.72-.18-.36.28-.64-1.19-.34-.16-.47.3-1.06-.71-.6,1.03.18.26-.35.95-2.08-.91-2,.74-.52-.46-.05-1.26-.92-.66-.73,1.54.12,1.04-.73,2.1.19,3.32-.74.25-1.5-.41-.61.47-.67.85.49,1.06h-.22s.08.37.08.37h-.85l-.49.79-.47-.17.09.28-.52.19-.19.72-.49-.06-.02-.74-.16.28-.65-.5-.22.57-.21-.56-.63.14-.66.97-1.34,4.55-.83.52-.88-.18-.43,1.19-.54.16.08.42-.56.11-.33,1.09-.68.17-.56,1.5-2.37,1.14-1.13,1.35-.35-.56-.44-.07-1.27,1.88-.84-.02-.6.52.06.59-.77,1.17-.41-.28-.34.53-.9-.52-.29.73-.79.56.14-.43-.72-.86-1.44.87-.59.83-.66-.12-.58-.58Z"/>
    <path class="cls-2" d="m547.7,198.06l.81-1.13-1.1-.44-1.33-1.22-1.27-3.57,2.02-1.43.03-.77-2.17-1.72-.15-1.23,1.3-1.39-.17-1.06.37-.32-.38-.44-1.08-.32-.13-.69,1.34-1.33.75-.18.51-.56,2.36-.71,1.4-2.35-1.41-2.11.08-.57-1.24-1.37-.49-1.23-1.51-1.04-.16-1.64-1.96.53-.52.96-2.1-.61-.95-.82-.43.08-.53-.68-1.52-.22-.4-.42-2.08.11-.53-.66-1.5-.27-1.68-1.57-.69-1.21-1.74-.99-.94-.16-.63-1.05-1.48-.53-.86-.67-2.89-.52-1.13-.67-.14-1.98-.53-.22-1.49-2.26.11-.36-.7-.68.24-.66-1.44-.74.25-.36-.33-.41.48-2.01-.81-.46.68-1.35-.54-1.1,1.3-.43.31-.51-.16-.28-.94.27-.09-.73.97-1.44,2.72-1.91-.6-.76-2.22-.86,1.01-1.81-.09-1-1.01-1.3,1.05-1.83.6-2.15-.52-1.22.36-1.07-.29-1.27.93-3.77,3.23-2.49,1.24-.03,2.83.96,2.81,1.45,2.57,3.96,1.45.94.97,1.44,1.19.94,1.62.42-.03.58,1.26.87,1.91.65,1.41-.87.03-.96.98-1.55,1.08.06,1.43.91.36-.44,5.08-1.41,1.42-.69,2.72-.42,1.31-.9,1.02-2.14.14-2.5,1.45-.4,1.03-.75.7.03.65.68,2.11-.82,2.58.34.58.6,1.52,3.34,1.56.87.06-.35-1.05-.43.42-.7-.37-.22-.16-.77-.95-.07-.29-.56,1.09-1.74-.12-.28.58.12.72-.57-.49-.56.05-1.31,2.18-1.54-.42-.97.15-2.58-.35-2.47-.37-.4.27-1.27-.08-2.02-.6-.6-.68.19-1.34-.48-1.09.47-.72-.16.56-2.45.37-.28-.15-2.42.64-2.66.55-.72-.03-1.46-2.84-1.08-1.4,1.11-.75-.14.26-.74.76-.71h.57s1.59-1.47,1.59-1.47l.17-.93-.73-.24-.17-.4.23-.26-.43-.55-1.11-.08-.81-.77-.91-.18.09-.54-1.52-2.59-2.41-.78-.17-.51.33-1.42-1.13-1.76,1.33-.3,1.04-.79-.27-.9.41-.23.08-.79.96-.49,1.72.48.25-1.1-.91-.24-.06-1.13-1.63-1.29h-.69s-1.31-.66-1.31-.66l-1.05.12-2.26-.41.45-.87-1.12-1.25-.76-.51-1.79-.27-.65-1.05-.79.06-.84-.54-.47.18-.49-.31-.96.77-.69-.42-.4-.87h-.51l-.85.2-.64.68v.97s-.67,0-.67,0l.12-.68-.76-.8-.64-.03-.34-1.18-.89-1.26-.66-.31-1.53-.05-.08-.57.33-.17.73.41.49-.37.18-1.34,1.32-1.39-.77-2.32.77-3.26-.31-.27-.09-1.39-.64-.13.57-2.49.86-1.97-.12-1.01.79-1.75.68-.77,1.5-.33.14-.94,1.74-.39,1.16-1.06.87-1.8,1.4-.65-.83-2.08,1.09-2.2-.08-.88-.48-.7.36-.35-.14-.75,1.71-.82.39.52,1.35-.57.36.69.3-.15.24.48.62.22,1.12-.84,1.34.12.5.56-.12.71.34.27.84-.36,1.03.8,1.17-.46,1.46.48.86.79.82-.26.23.32.19-.15.37.56,2.38-2.25-.09-1.22-2.65-1.44.23-.46-.24-.45.4-.6-.22-.28.52-.51-.26-1.45,1.15-1.57-.2-2,.37-.85,1.28-.04-.02-.57-.71-1.08-.45.02-.11-3.35,1.11-.03-.09-2.52.55-.02-.18-.71.43-.27.12-.99-.33-1.88-.55-1.32-.62-.54.03-.51.71-.73-1.09-3.06-.08-2.35.2-1.47.27.36.33-1.32,1.34-.86-.29-.2.55-1.63-1.07-.9.54-.85.74.54,1.75-1.44,2.1,1.36,1.35-.66,1.14.18.22,1.23-.29.31.06.73,2.78.34,1.09.46.55-.83,2.13.2.37-.5.42.46,2,.63.16,1.31-.46.06-.18.55.22.31.91.17.12.33-.37.54.64.33.45,1.17-.73.78-.68,1.76.39.15.12.52.55-.36.46.13.68-.74,1.37.65,1.92-2.25,1.5-.44,1.45.37.8-.33,1.57.87.02-.61.72-.12-.4-.89.13-.4.53.02.91-2.03-.59-.99.28-1.38,1.14.32.39.51-.25.74,1.52.96.64-.46,1,.69,1.04-1.37.39.24,1.25-.28,1.91.4,2.28,1.39.42,1.06,1.09.31.98,1.08,1.24.7,2.64.21.57.68,1.25-1.05.91,1.11,2.58,1.25.48,2.53.77.82,4.71,1.37,1.97,1.28,3.33-.2.17-.28.75.39,1.14,1.61.66.04-.09-.38.3-.04,1.74.86,3.59,3.88,1.96-.83.58.14-.07.26,4.08.77,1.69-1.9.84-1.7,4.93.44.92-.92.47-.07,1.14,1.51-1.06.83.13.37,1.52.25.73.8,1.07-.44-.39-.8.56.09.41.6-.06,1.19.53.9.56-.19.31-.93.43.09.82,1.45-.8.12-.49-.77-.17.73.26.61,2.7-.73.21.58.95.19-.65,1.42,1.09.81.6-.08.1-1.28.63.14-.1.65,1.19-.13.17.5-.78.94-.19,1.35,1.05,1.02.91.2,2.75,2.64,6.08,2.63,1.27.95,3.92,1.28.95-.1.51-.39,2.26.77.02-.41,1.1.3.39-.88,3.61.73,6.13.33,1.49.35.51-.69.98-.06,1.94.52.57-.31.92.88,1.95.29.65-.18.59-2.09.31.71.42-.2.73.54-.5.77.87.39v.44s1.8-.52,1.8-.52l.08.38.58-.37-.09-.38.55-.39v-.54l.35-.03.32.42.52-.75.3-.18.09.25.59-.45.27-1.66.55-.84,1.57-1.06.39-1.36-.39-.59,1.17-2,.03-1.33,1.31-.87-.18-.67.41-.15,1.47,1.15,3.86-.25.28.67.63-.41.87-1.62.66-.54,2.63,3.1,1.77.16,1.18.76.03.65,3.6.24.48-.85.83-.1,1.02.08,1.25.58.23.45-.17.4,1.12.57.34.77.44,2.53-.69,1.49,1.01,1.94,1.84-1.43.34.21.22-.41,1.85-.14.51.37-.04.37.38-.12.36.29.08.4,1.06-.49.7,1.75.56.26-.14.28.65-.3,1.28,1,.23-.35.12.28,1.08-.29.89.43.24.75.56-.52-.09-.47,1.74.21.51-.14.68-.88.77.75,2.86-.28.96-1.72.7,1.12,1.2-.07.43-.34.45.49-.37.31.19.45,1.33,1.14.27,1.34-.21.67.23.18-.32.23.19.27-.39.11-.21,1.27.34.36,1.17.18-.26.84.2,1.32-.36,1.08.18.94.81.33-.18,1.67-.66.88v.61s2.23.75,2.23.75l.26,1.72-.81.88.69,2.68-.27,1.83,1,1.69-.14,1.21,1.21,1.41-.44,1.47-.82,1.03.32.86-2.24.33.14,1.03-.84.27.08,1.71.34.85-.56.13-.69-.56-.89.34-.6.78.69.81-.56.82-.02.74-.97-.11-.63,1.57-.88.32-.54,1,.48.55-.06.41-1.3.61.25,2.24,1.34,2.36-1.28,1.5.65,2.11-.51.89.04,1.16-.55.24-.88-.28-.33.58.88,1.28-.15,1.1.6,2.17.84.36,2.15-.24.26.44-.56.72.24.53,3.92,1.68v.47s-1.19,1.3-1.19,1.3l-.16.73.67,1.81,2.12,3.08.12.67.6.32,2.03.02,1.23.98-.53,1.14-.39,3.24,1.72,2.25.12,1.12,1.63,3.68.1,2.72,3.96,2.72,1.6,1.79,1.07.13,1.95-.7.86,2.38.37.15.11.5-.67.15.51.65-.45.87.22.52-2.27,1.37-.43,2.71-3.53-1.13,2.61-1.19-.88-.9-.82.29-.76.86-.78-1.59-1.27-.38.03.74-.34.43-.35.15-.33-.27-.65,1.48.96.13,4.22,3.06-1.94,3.46-.89,3.65-.72.91h-.62s-.13-.48-.13-.48l-.34.1.23-1.55.34.12-.67-.86-2.1-.88-3.11-.44-.49-.87.47-1.05-.38-.62-1.92-.56-.22-.39-.05.28-.63-.29-.33.8-.42.23-.92-.6-.93,1.39-.41.07.15.48-.4-.09.18.44-.36.25.11.26-.94-.26-.61,1.93-.1-.21-.46.17-.43.44-.23.6.36-.18.5.25.14.74-1.02.74-1.25-.28-.29.38-.42-.22.08.26-.75-.11-.08.27-.22-.26-.51.95-.81.39-.47-.36-1.95,1.43-.17-.19-.11.33-.55-.08-.09.38-.85-.45.05.24-.9-.07.26.07-.23.21.19.22-.44.22-.4-.24-.52.34-1.44-.48-.73.5-.28-.4.03,3.82-.54-.04-.05.28.06.74.74,1.38-.32.28.04.68-1.78,1.08-.92-.04-.84.58-.59-.64-.76.87.12,1.01-1.95.63-.25.98.25,1.53-.76.51-2.33,3.33-1.1.67-1.13,2.23-.46.2-.4-1.39-.58-.62-.97-.4-.42-1.43-.7-.41-2.49-3.01-.56-1.37h-.61s.06.35.06.35l-.78.19-.05.32-.22-.33-1.44-.31-1.02.91-.92.07-.4-.4-1.2.88-.64.12-.29.65-.88.37-1,1.26.04.63-.81.42.17.31.39-.11-.46.89.35.51-.25,1.25-.52-.13-.55.48.7.32-.8.98.47.43-1.24.9-1.22-.83-.57.47-.09.55-1.29.82-.69.08-.72.61-.81-.28,4.1,3.38.22.42-1.61,1.84.57.56-1.86.77-.93.83-.13,1.99-.43.56-.34-.24-.88.41-.81,1.95-.78.59-.88-.93.32-.95-.36-1,.71-.24-.61-.37-2.43-.55-.75.18-.96,2.45.04.6.55.09.12-.41.38.04,2.62,1.1-.92,2.6.68,1.29v1.7s-.49.69-.49.69l.27.68-.39.61-.12,1.17.21,1.59,1.11,1.73.28,1.5.66.53-.18,1.01.91.17,1.75,1.06,1.71-.39.69.15-.45,1.3,2.33,4.34-.47,1.08.53,1.26-.06.64-.3.39-1.48.21-.63.62.59,1.07-.88,1.02-.49-.04-.97.63.08,2.61-1.68,2.75.32.83-.59,2.17,1.43,1.03.89,1.6.76.32.27,1.52-.52,1.59-.82.88.21.41-1.61,1.44.42.45-.14.47-.47.48-1.32.36.9.49-.26,1.18-1.14.4-1.04,1.53-.9-.23-.84.69-.8.22-.67,1.09-.68.36-.12.81-1.81,1.58-2.54.87-2.26-.15-.66.25-.52-.56-.69-.03-.11-.43-2.03-1.83-.06-.85-.95-.95.09-.91.5-.35-.56-1.23-.65.2-.47-.4.08-.47h-.86s.52-.58.52-.58l-.22-.78.26-.77-.55-.2-.39-1.31.53-.61.3-1.47-.92.58-.2-.42.54-.79-.47-.17-.28-1.31-.88.38-.34-.2-.37,1.02.07.98-.46.62-.86.25-.23,1.04-.45-.56-.99.21-.14,1.97.22.42-.78.31-1.2-1.01-.61-1.43-.9-.51-.6-1.15-1.23-.76-.94-.03-.56.33-2.91-.65-1.85.55-2.14-1.36-2.37-.56-.21-.82-1.08-1.6.12-2.55-1.76-1.25-1.43-.28-.57.31-.46.89-1.81-.25-.35-2.86.44-.68-.13-.95.78-.83.64-1.83-.62-1.09-1.53.55-.97-.71-.4-1.61-.85-.77-1.72.5-1.67-.69-.76.15-.2-.54-1.06.43-.71.8-1.94.55-.37-.2.41-.85-.11-.36-1.03-.68-.99-.1.29-2.76-1.23-3.1.1-1.07-.51-.8.42-1.46-.16-.86-2.16-.17-.54,1.22-1.3,1.01-.94-1.68-1.94-1.1-1.05.03-.61.34-.92-2.2-.95-1.15-.4-1.44-.9-.82-2.22.62-1.67-.07-.87.64-.77-.15-.29-.45-2.35.63-.81-.26-.72.21-.6-1,.59-.39.22-.99-.84-.81-.72-.25-1.08.13-.76-.35-2.45.21-.65-.47-.51.04-1.25-2.77-.56-.1-1.12,1.04-1.24.07-.83-2.39.26-1.93-.53-.3-1.02.33-.08-.59-1.67-1.3-1.48.29-.21-.32-1.45.07-.73-.33-.49.1-.97,1.02-.74-.3-.53.07-.35.42-1-.08-.57,1.74.3,1.39-.4.22-.03.9-.36.49-2.59-.45-.49.24-2.47-.98-1.76.47-.21.85-.71.44-.14,1.57-.58.43.17.7.82.22-.23.28.28.62-1.11,1.53-1.69-.47-1.53.5-1.02-.71-1.47.21-.58-.62-.94,1.33.24.56-.21.34-4.25.98-1.07-.19-2.15.43-2.52-1.86-.56.03-.81.75-2.5,1.06-1.13.22-1.43-.51-.52,1-1.62.71-1.2,1.72-.9.73-.36,1.04h-1.32s-.23.29-.23.29l-3.8-1.01-.05-1.6-1.71-2.29-2.13,1.19-.96-.76.19-.74-1.52-.05-.91,1.12-1.08-.13-3.31,1.88-.98-1.33-.8-.18-1.06-.78-.45-.53.24-.59Zm166.35-87.42l-1.01-.18-.59-1.03-.71.27.43.51-1.31.77-.31.59-.86-.13-.61.68-.89.38-.57-.22-1.16.48-.27.6.53-.02.3.41-.95.98-2.1.54.57.13.11.31-.65.81-.53.14-.18.97-1.55.3-.46-.68.35-.88-.75-.26-2.61-2.04-.36.19.02,1.03-.93,1.02-.25,1.03v1.33l.7.57-.04.36-.25-.19-1.16,1.07h1.31s-.27.53-.27.53l.32.81,1.25.67-.77.78.58.36-.69,2.53-1.78,2.4,1.53,1.05.27,1.52.53-.24,2.06.29-1.02.38-.33.53,1.06,1.19.14.63,1.82-.31-.22.37.27.42-2.11.69-.32.44.43.23,1.74-1.04,1.15-.26,1.06.24,1.4-.71,1.35.53,1.45.04.09.65,1.41.85.18-.96.48.14.56-2.07,2.73.7.78.47,4.92.95.36.62.46-.07-.13-.32.91-.08.24-.39,1.48.43-.51-2.76,2.2-.3,2.25-2.4.03-.51,1.1.3.53-.58.53.38,1.87-.42,2.82,2.22,3.48,1.12.04-2.5-.45-.58.29-.59-.14-.45-.74-.24-.65.53-.65-.61.09.42-.34-.04-.7-1.31.39-.17-.16-.82-.87.11.41.56-.88-.24.47.11-.49-.56.11-.78.37.25.06-.2-.41-.18.34-1.27-.62-1.37.9-2.48.55-3.56-.51-.17.02-.38-.91.02.65-3.16-.87-.15-.85.32-1.83-.77.11-.5-.79-.37.72-1.64-.13-.48-1.76-.76-1.58-.09.32,2.17-.19.94-.33-.07-4-2.62-.43-3.85-2.01-.82-1.47.57-.12.41-.92-.36v-.5s-.56.25-.56.25l.07.31-.43-.05-.47.7.68,2.04-.66-.02-.4.96.33,1.1-1.13.32.37.8-.77-.06Z"/>
    <path class="cls-1" d="m714.05,110.64l.77.06-.37-.8,1.13-.32-.33-1.1.4-.96.66.02-.68-2.04.47-.7.43.05-.07-.31.57-.25v.5s.91.36.91.36l.12-.41,1.47-.57,2.01.82.43,3.85,4,2.62.33.07.19-.94-.32-2.17,1.58.09,1.76.76.13.48-.72,1.64.79.37-.11.5,1.83.77.85-.32.87.15-.65,3.16.91-.02-.02.38.51.17-.55,3.56-.9,2.48.62,1.37-.34,1.27.41.18-.06.2-.37-.25-.11.78.49.56-.47-.11.88.24-.41-.56.87-.11.16.82-.39.17.7,1.31.34.04-.09-.42.65.61.65-.53.74.24.14.45-.29.59.45.58-.04,2.5-3.48-1.12-2.82-2.22-1.87.42-.53-.38-.53.58-1.1-.3-.03.51-2.25,2.4-2.2.3.51,2.76-1.48-.43-.24.39-.91.08.13.32-.46.07-.36-.62-4.92-.95-.78-.47-2.73-.7-.56,2.07-.48-.14-.18.96-1.41-.85-.09-.65-1.45-.04-1.35-.53-1.4.71-1.06-.24-1.15.26-1.74,1.04-.43-.23.32-.44,2.11-.69-.27-.42.22-.37-1.82.31-.14-.63-1.06-1.19.33-.53,1.02-.38-2.06-.29-.53.24-.27-1.52-1.53-1.05,1.78-2.4.69-2.53-.58-.36.77-.78-1.25-.67-.32-.81.27-.52h-1.31s1.16-1.08,1.16-1.08l.25.19.04-.36-.7-.57v-1.33l.25-1.03.93-1.02-.02-1.03.36-.19,2.61,2.04.75.26-.35.88.46.68,1.55-.3.18-.97.53-.14.65-.81-.11-.31-.57-.13,2.1-.54.95-.98-.3-.41-.53.02.27-.6,1.16-.48.57.22.89-.38.61-.68.86.13.31-.59,1.31-.77-.43-.51.71-.27.59,1.03,1.01.18Z"/>
    <path class="cls-1" d="m332.49,368.17l.1-1.19-.38-1.3.24-.28-.67-.81.43-.07-.18-.67.66-.61.16-.67-.09-1.26-.34-.22,1.7-.4,1.72.39-1.31-1.89.58-2.47-.27-.72.86-.88,1.19-.31.79.38,1.05-.98.48.02.48-.46.99.13,2.2-.4.42-.65.33.29.8-.32.88.06.28.16.12.98,1.33-.44.73.56.86-.16,1.67-1.66,2.34-.5,2.2-2.06,1.18.71.62.81,1.6.48,1.43-.84.22-1.08.67-.88,1.16-.51.22-.62-.26-1.41-1.12-.38-3.02-2.07-1.1-1.09-1.72-.5-.58-.7.17-.59-.78-1.51-1.05-.31-.56-.67-3.19-1.91.28-1.91-.16-3.04-1.07-1.22.71-1.41-.14-.4-1.61-.68-.19-.61-2.24-.45-1.68-1.3.38-1.18-.66-.09-1.11-.74-1.06-1.84h-.96s-.62-.61-.62-.61l-.58-2.84-1.49-2.64,1.36-1.24-.16-1.42.69-.23,1.34-1.59.14-1.34,1.72-1.01-.67-.67-.85-.22-1.64.62-2.94-.48-.42-.58-1.13-3.83-1.26-.83-1.38-1.96-.62-.08-1.22-1.26,1.71-1.5-.63-1.06-.07-1.05.65.34,1.77-.54,1.57.45.83-.54.14-.47,1.89-.44.48,3.02-.28,1.1.61.63,1.83.42,1.75-.49,1.27,1.33,1.07-.06.95-.4.09-.39,1.64.07.45.75.76.33.52,1.23,1.02.26,1.4.08,1.19-.85,1.5.26.78.52,2.84-.03.68.26,1.24.59-.12.47.69,1.46v.7s1.33.78,1.33.78l-.29.76.41.94.84.66,1.88.1.29.44,1.11-.47.77-.81,1.56.38.36.34-.15,1.41,1.41.48,1.24.89.44-.15.92.75,1.6.65.72-1.07.06-1,.99-.14,1.17.41,2.78-.3.66-1.2,2.37-.09,1.66-.97,4.6-.35,3.54-1.01-.27-2.67-.65-.57,1.1-2.47,2.91-1.19,1.35.12,1.04,1.03,1.07.26,2.39-1.47h1.45l1.75-.5,1.83.96.2,1.91.63.73,1.56.94.85-.29.68-.95,1.09-.61,1.23.54,1.97-.38,4.66,1.3.13.28,1.95.24,3.52,1.5.44.44,1.92.54,1.81-.56.68.17,1.59-.67,2.33.56.64,2.08.57.44,1-.37,1.12.36.67-.33.12.22,1.78-.06.23,1.06-.84.66.67,3.56.9.65.42.93,1.73.71,1.2.3,1.22-.73,1.4.73.02,1.06.89.25.51.55.21,2.32.47.72-.37.74.12.68.36.54.61.14.02.97.99.32.67.9,1.06.64.54,1.08,1.43.8.64-.28.35.37.48-.2.59.71.83-1.25,1.05-.43.47.36,1.11.1.78-1.27.92-.34.29-.99,1.24.09.76-1.05,1.66-.91.77.65,1-.15-.16-2.46.54.29,1.11-1.1,1.65-.53,1.22.08.39-.44,1.04-.26.33-.68-.38-.56,1.12-1.46-.43-2.47,1.78-.49,2.08.44,1.62-.75.83-.62.29-1.03,1.3-1.47.6-.15.28-.66.6-.17.02-.49.99-.44.81.14.48-.36.24-.49-.25-1.61.52-.79.51-.23.41.48.26-.21.86.28,1.56.95.97-.85.27-.69,1.01-.5,2.03-1.85.1.9,1.32,1.49-.1.46.73,1.27.26,2.32,1.14,1.48.09-.34,1.5-1.05.6.77.96.57.61-.54.78.5.79-.4.47.44,1.39-.5,1.67.12,1.03-.3,1.04.87.81-.31,2.1.18.62.87,1.2.76-.6.95.29.64-.29,1.47.53.64.47,1.56.57-.32.1.28.39-.05,1.03-1.42,2.64-1.19-.08-.54.46.53.88-.02-.13.18.62-.38.15.59.84-.23.32-.92-.19-1.9.47.61.89-.13.08.49.62-1.82,2.93-1.41-.26,1.43,1.41.84-.05.74,3.14-.76.54.25.8-.29,2.18.1.85.14.66,1.52,2.39.53,1.28-2.44,2.37-.12,1.55-.68,2.65-.13.93.39.56-.58.82-.06.45.31.7-.39.69.7-.25-.98.56-.69,3.67-1.89.5-.18,1.15.33.6-.24.72.35,2.07-.75,1.63-1.35,1.38.16-.31,1.56,1.71,1.99,1.81.39,1.6,2.07,1.73,1.31,3.69,1.06,1.13-.03,1.01.68.86.95.68,2.09.7.77.09.91.64.68.41,1.31.53.59-.19.35.71.94-.19.22,1.09.2,1.1,1.08.32.98.73.87.08.58-.56,1.25-.42,2.34-.27.43-.71.21.31,1.34-.13,2.23,1.16,1.87-.63,1.73-1.69.78-.72.94-.24,2.02-.69.81-.44,3.03,5.4,1.81.42.46-.32,1.55.7,1.46-.02,1.13,1.26,1.46-.54.09-.38.66.74.73.21,1.35-1.01,1.39-.34,4.32-.57.3-.27.57,1.32,1,1.7-.7-.14.62.54.81,1,.29.2,1.04-2.57.11-1.19,1.08-1.42.67-2.23,3.08.06,1.14-1.62,1.97-.52-1.1-.48-2.43-1.63-1.27-1.44,1.88-.52.1-.59.77-.33-.59-.58-.25-.25.72.38,1.77-.43.42-.62-.64-.03.32-.96-.08-.47-.71.06-.39-.46.3-1.06-.38-.74.25-.1.46-.88.18-.39.62-.16,1.55-.88.19-.44,1.8-.79.48-.45.76-.23.74.24.32-.41.04-.18.39.39.79-.59,1.5-.98.41v.42s.97.59.97.59l-.95.59.26.88-.79,1.24.15,1.95-1.34.3-2.17,1.3-.61-.13-.33-.65-1.8.05-1.23,1.09-.77-1.16-1.34,2.33-.72-1.21-.76-.26-.43,1.14-.11,1.83-.76.08-.47.93.53,1.1-.31.57-1.07-.1-.67-.52-.79.95.4.61-.46,1.12-.88.12-.73.86-2,.27-1,.56h-1.97s-.89.44-.89.44l-.93.03-.05.56-.96.56-.38,1.8.08.35.58.22.09.74-.3,2.69-.78,1.28.32.38-.36.71-1.28.33-.27.43-.73-.64-.03-1.34-.68-1.68-.93-1.15-.26-1.23-.85-.46-1.08-1.41-.05-.53-1.73.5-1.4,1.77-.84-.38-.6.31-.27-.97-3.62-.46-.06-.77-1.31-1.22.21-.51.7-.23-.04-.33-.39.02-.56-.65-.64.27-1.49-.14-2.93,1.17-1.47-.09-2.6.41-1.9,1.01-1.93.09-.71-1.18-1.98-.78-1.22.29-.78.54-.86-.11-.84.72-1.21.36-1.1-.55-.83-1.13-1.24.62-1.28-.26-.5-.44-.18.51-.93.37-.44.68-1.39.08-.95-.32-.37-1.13-1.75-1.22v-1.17l-1.61-2.4.12-.38-1.7-.5-.4.16-.78-.92-2.59-.33-2.12-.9-1.58.24-1.59,1.57-1.54.06-.93-.86-.9-.2-.09-.71-1.41-.82-.63.23-2.88-2.25-1.59-.34-.53-.75-1.19-.38-1.16.37-2.06-.6-.33.57h-.79s-1.72.83-1.72.83l-2.57-.73-.44.79-.54.14-1.05,1.02-1.89.14-1.54-1.04-.22-.81-1.25.45-1.32-.54-1.78.16-1.71-.98-1.38.39-1.1-.35-.76.35-1.14-.1-3.63-1.74-.38.06-1.61-1.34-.54-.12-2.15-.11-1.15-.5-.68.39-.29.62-1.28.13-.26-1.18-.77-.83-1.99-.27-.84.62-1.59.43-.53-.27-.37-1.05-.66-.08.19-.64-.31-.96-2.76.87-.39.52-2.23-.32-.83.45-1.01-.42-1.07.26-2.04-.6.25-1.64-.87.06-1.4-.77-1.75-.4-.41.85.23,1.05-.81-.48-1.12.55-.82-.54-2.58,2.91-.07-.26-1.36-.26-1.03-.88-1.04.17-.27.32-1.69-.65-.9.62-.9-.49-.7.69-.52.07-.15.59-.77-.3-.02-.82-.63-.82-.62-.27-.35-.7-.89.18-.61-.46h-1.08s-1.5-.86-1.5-.86l-.22-.61-.9-.5v-.61l-1.89-.18-.49.45-.92-.65-1.27.05-1.79-.79-.33.25-2.36-1.19-.51.44-1.66-.12-.32.46-1.47.25-.61-.3h-1.42s-.65-.79-.65-.79l-.1.26-.38-.2-1.03.4-.87-.5-1.28.46-.55-.43-.47.23-1.17-.69-1.08-.22-.82.66-2.23-1.3-.81.28-1.1-.16-.52.32-.95-.29-.87.43-2.41-.52-.54.56-.83.25-2.02-.83-.02-1.79.42-.89-.68-.27.04-.37-1.31.48-.38-.29.13-.22-.81.05-.78-.53-.81-1.31-3.34-.8-1.24.38-.64,1.17-1.46.54-1.63-2.33-1.76-.37-.93-.85Z"/>
    <path class="cls-1" d="m699.14,244.48l-2.28.52-2.43,1.14-2.65-.21-.08,1.19.53.84.29-.06-.25.44.2.64-.43-.07-1,.86-1.17-1.07.74-.55-.16-.71.9-.22-.16-.34-.76.29-.41-.32-.58.64-.7.19-.68,1.58-.04,1.42-3.52,1,.45,1.09-1.96.85.64.47v.32s.35-.23.35-.23l.23.54.25-.04-.19.32.44.51.34-.3-.11.66.38.16-.33.36.47.05-.35.21.31.33-.2.12.86.09-.1.63.96.88-.35.35.23.07-.23.54.59.61-.2.54.33.07-.43.09.12.3.25-.19.11.34.21-.26.36.31-.11,1.33.5.34-.26.45.27.6-.35.32.62.14-.11.35.32.23-.32.69.36.07-.1.45,1.03,1.06.16.49-.22.07.35.04-.04.81.61.78-.46.3.63.95-.26.31.49.14-.28.43.35-.11-.13.43.38.51-.49,1.25.35.13-.1.62h-.44s-.18.59-.18.59l.33-.14.29.34-.21.15.28.19-.02.69.35-.04-.3.29.03.79.58.27-.15.46.45.38-.33.12.27.4-.19.17.57.36-.32.13.44.07v.63s.43.35.43.35l-.23.2.5.24-.12.49.35.14.11.82.25.05-.31.05.1.79.3.1-.23.09.39.21-.13.31.51.76-.26.75.23.08.22,1.79.24.07-.45.46.25.06.07,1.12-.6,1.02-.23.99.23.3-.4.3.06.39-.31.32-.75-.1.1.55-.33.08-.15,1.67.39.7-.78.97.43.85-.28.28.23.73-.3.21.7.75.26,1.05.43.27-.2.26.8-.32.76,1.83.62-.03.44.62.02.45-.32.11.4.19-.53.18.21.34-.43.22.07.5.43-.1.26.26-.15.25-.47-.23-.12.2.65.1.16.38.26-.13-.02.5-.42-.06.58.31-.02.55.82.46-.16.57.99.4-.5.33.45.38-.12.31.41-.08.16.8.57-.47-.23.29.36.14-.02.81.66-.05-.24.3-1.96-.54-1.38.7-.27,1.65-.55.04-.33,1.09-.31.16.28.91-.53.77-.36.05-.54,1.16.11,2.97-2.65-.07-.71,1.68-.12,1.83-1.02.71-.49-.22-1.06,1.15-.03,1.58-.47.03-1.86,1.42-.41,1.58.03,2.47-.72,1.42.54.55-.67,1.19.15.18-.47.19-1.11,1.3.32,1.18,1.13,1.53-.58,1.01.23,1.48-.48,2.67.21,2.87-.5.9,1.02,3.2,1.14,1.23-.18.58.21.33h1.15l.78.91.89-.15-.24.93.19.74.86.86.68,1.4-.31,4.62-2.95-1.25-1.41-2.38-1.59-.57-3.93-.57-3.86-3.11-4.44-1.56-3.29-.1-4.11,1.26-3.35,2.6-1.56.22-1.55-.27-1.87.7-2.76-.38-2.11-1.17-2.8.24.47.96v1.14s-1.11.33-1.11.33l-.23-.34-.26.16-.66,1.08.21.52-.43.19-1.07.07-.73-.54-.82.38-.06-.85.37-.17-1.44-.32-.54.62.02.44-1.32.05.06.35-1.06.12-.05.78-.48.04-.38.64-.87-.21-.39.53h-.38l1.13,2.74-.21.58-.5-.14-.3.42.21.56.59.31-.13.28-.4.24-.35,1.11-.2-.6h-.38l-1.75,1.96-.52-.26-.38.25.02.81-.77.11-.23.33-.3-.65-1.23-.36-1.4,1.38-1.36-.46.13-1.21-.94-1.07.15-1.38-.78-.5-1.09.42-1-1.03-.91-.06.15-.85-1-.42-2.09.62-1.96.06-.38.34-1.77-.22-.22-.54-1,.67-.7-.35-1.04.03-.89.85-.88-.64-1.1-.14-.75.13-1.74,1.42-1.58-.13-2.82.89-1.26-.6-.65.21-2.22-.49-1.65-1.58-1.61.36-.28-.49-.92.28-1.14-.62-.54.54-.61-.05-.6,1.07-.77-.91-.3.35-.43-.33.15-.16-.93-.4-.9.99-1.16.25-.57,1.07-.82-.69-1.04-.34-.2-1.04-1-.29-.54-.81.14-.62-1.7.7-1.32-1,.27-.57.57-.3.34-4.32,1.01-1.39-.21-1.35-.74-.73.38-.66.54-.09-1.26-1.46.02-1.13-.7-1.46.32-1.55-.42-.46-5.4-1.81.44-3.03.69-.81.24-2.02.72-.94,1.69-.78.63-1.73-1.16-1.87.13-2.23-.31-1.34.71-.21.27-.43.42-2.34.56-1.25-.08-.58-.73-.87-.32-.98-1.1-1.08-1.09-.2.19-.22-.71-.94.19-.35-.53-.59-.41-1.31-.64-.68-.09-.91-.7-.77-.68-2.09-.86-.95-1.01-.68-1.13.03-3.69-1.06-1.73-1.31-1.6-2.07-1.81-.39-1.71-1.99.31-1.56-1.38-.16-1.63,1.35-2.07.75-.72-.35-.6.24-1.15-.33-.5.18-3.67,1.89-.56.69.25.98-.69-.7-.7.39-.45-.31-.82.06-.56.58-.93-.39-2.65.13-1.55.68-2.37.12-1.28,2.44-2.39-.53-.66-1.52-.85-.14-2.18-.1-.8.29-.54-.25-3.14.76.05-.74-1.41-.84.26-1.43-2.93,1.41-.62,1.82-.08-.49-.89.13-.47-.61.19,1.9-.32.92-.84.23-.15-.59-.62.38.13-.18-.88.02-.46-.53.08.54-2.64,1.19-1.03,1.42-.39.05-.1-.28-.57.32-.47-1.56-.53-.64.29-1.47-.29-.64.6-.95-1.2-.76-.62-.87-2.1-.18-.81.31-1.04-.87-1.03.3-1.67-.12-1.39.5-.47-.44-.79.4-.78-.5-.61.54-.96-.57-.6-.77-1.5,1.05-.09.34-1.14-1.48-.26-2.32-.73-1.27.1-.46-1.32-1.49-.1-.9-2.03,1.85-1.01.5-.27.69-.97.85-1.56-.95-.86-.28-.26.21-.41-.48-.51.23-.52.79.25,1.61-.24.49-.48.36-.81-.14-.99.44-.02.49-.6.17-.28.66-.6.15-1.3,1.47-.29,1.03-.83.62-1.62.75-2.08-.44-1.78.49.43,2.47-1.12,1.46.38.56-.33.68-1.04.26-.39.44-1.22-.08-1.65.53-1.11,1.1-.54-.29.16,2.46-1,.15-.77-.65-1.66.91-.76,1.05-1.24-.09-.29.99-.92.34-.78,1.27-1.11-.1-.47-.36-1.05.43-.83,1.25-.59-.71-.48.2-.35-.37-.64.28-1.43-.8-.54-1.08-1.06-.64-.67-.9-.99-.32-.02-.97.65-.15,1.09-.99,1.26-.11.42-.96,1.56-1.16.05-1.29,1.01-.97.31-1.41,2.08-1.12-.1-3.68,1.93-3,.93-2.42.53-.23.75-1.03.33-1.12-1.83-2.29-.37-.98-.87-.52.04-.87.49-.71-.21-.47,1.19-.98.59.07,1.16-1.6.5.04.83-.88.61-.05,1.25-1.05.45-.03.54,1.1.91.84,1.61-.47,1.55.17.93-1.1-.48-.6.2-.83-2.72-1.29-.8-1.38-1.24-.96-2.73-.91-.6.25-.2-1.47-.7-.92-.09.26-.96.22-.5-.44.93-1.45-2.19-1.46-.9-1.24-.82-.47-.54-1.15-1.18-1.04,1.88-1.78-.42-1.72-2.07-1.36-2.22-.91-.25-.49.62-.63-.41-.61.39-.75-.38-.61.18-.97-.22-.14-.64-.31-1.33.54-.73.83-.87-.24.2,1.17-.75.96-2.45,1.41-1.37-1.79-2.36-.05-1.2,1.25-.2,1.66-1.69-.08-.03-.77-1.39-.61-.81-.86-.6.41-1.86-.72-2.11.42-.83-.81-.17-.6-1.51-.05-1.05-1.55.47-1.23.06-1.46-.57-.12-.2-.49.83-2.37-1.49-4.46-.41-.31-.42-3.31-1.01-1.7.18-1.92-.99-1.04-.13-1.24,1.09-.97.5-2.31.67-.87.08-1.03.72-1.04-.17-1.66-.3.18-.27-.72.42.27.69-.4.54.24.9-.17,2.15,1.35,3.91.55,3.98-.2.74.41,1.05-.14-.57-1.79.23-1.04.97-1.54,2.12-1.76,1.2-2.9-.91-.92-.62-2.39.14-.34.99-.15-.12-1.22-2.17-3.76-2.33.28-.03-.66-1.1-.3-.85.33-.29-1.44.82-1.61-.59-3.73.15-1.47.47-.5v-.64s.47-.81.47-.81l.43-1.92-.22-1.1,1.01-.76,2.14-.7-.29-1.7,1.6-.36.51-1.83,2.38-2.39.02-.59,1.61.9,4.92-1.01,1.12.67,1.18-1.8-.21-.19.84.57.84-.42.22.72.88-.08.95.69.78-.03.37,1.01,1.38.92,1.59-.72h1.72s3.32,1.88,3.32,1.88l1.91-.91.94.32.97,1.55,3.76,3.52-.9,6.43.86.19-.38,1.24.97-.14.49.32,1.6-.54,1.37-.05.25-.56.63-.02.94-.63,2.31-.43.36-.61.98-.51,1.51.05.91-.53.92.3,2.93-2.29,1.33.34,1.47-.08-.97,1.33,1.22,2.18,1.65,1.34.55.98.96.35,1.83-.65,1.39.97.8-.23,1.03.49.86-.35.58.14.83-1.68,2.69-1.67,1.09-.03,1.04-.79,1.11-.31.36-.3-.27-1.63.49-.67,2.44-.64.28.56,1.39.04,1.1-.66.2-1.1,1.72-.91.56.03.31-.89.84-.81.71-.3,1.39.57,1.52-.59,1.08-2.14-.73-1.28,1.11-1.54h.53s1.71-.96,1.71-.96l1.85.49,1.64-.32.54-.88h.37s.82-.93.82-.93l.04.27.66-.05.75-.39,1.38.31.06.37.36-.34,1.35.38-.05-.78.5-1.19,1.93-.49,2.66-3.84.55.18.44.6.9-.02.72.8,1.77,1.01-.24.59.45.53,1.06.78.8.18.98,1.33,3.31-1.88,1.08.13.91-1.12,1.52.05-.19.74.96.76,2.13-1.19,1.71,2.29.05,1.6,3.8,1.01.23-.28h1.32s.36-1.05.36-1.05l.9-.73,1.2-1.72,1.62-.71.52-1,1.43.51,1.13-.22,2.5-1.06.81-.75.56-.03,2.52,1.86,2.15-.43,1.07.19,4.25-.98.21-.34-.24-.56.94-1.33.58.62,1.47-.21,1.02.71,1.53-.5,1.69.47,1.11-1.53-.28-.62.23-.28-.82-.22-.17-.7.58-.43.14-1.57.71-.44.21-.85,1.76-.47,2.47.98.49-.24,2.59.45.36-.49.03-.9.4-.22-.3-1.39.57-1.74,1,.08.35-.42.53-.07.74.3.97-1.02.49-.1.73.33,1.45-.07.21.32,1.48-.29,1.67,1.3.08.59,1.02-.33.53.3-.26,1.93.83,2.39,1.24-.07,1.12-1.04.56.1,1.25,2.77.51-.04.65.47,2.45-.21.76.35,1.08-.13.72.25.84.81-.22.99-.59.39.6,1,.72-.21.81.26,2.35-.63.29.45.77.15.87-.64,1.67.07,2.22-.62.9.82.4,1.44.95,1.15.92,2.2.61-.34,1.05-.03,1.94,1.1.94,1.68,1.3-1.01.54-1.22,2.16.17.16.86-.42,1.46.51.8-.1,1.07,1.23,3.1-.29,2.76.99.1,1.03.68.11.36-.41.85.37.2,1.94-.55.71-.8,1.06-.43.2.54.76-.15,1.67.69,1.72-.5.85.77.4,1.61.97.71,1.53-.55.62,1.09-.64,1.83-.78.83.13.95-.44.68.35,2.86,1.81.25.46-.89.57-.31,1.43.28,1.76,1.25-.12,2.55,1.08,1.6.21.82,2.37.56,2.14,1.36,1.85-.55,2.91.65.56-.33.94.03,1.23.76.6,1.15.9.51.61,1.43,1.2,1.01.78-.31-.22-.42.14-1.97.99-.21.45.56.23-1.04.86-.25.46-.62-.07-.98.37-1.02.34.2.88-.38.28,1.31.47.17-.54.79.2.42.92-.58-.3,1.47-.53.61.39,1.31.55.2-.26.77.22.78-.52.57h.86s-.08.48-.08.48l.47.4.65-.2.56,1.23-.5.35-.09.91.95.95.06.85,2.03,1.83.11.43.69.03.52.56Z"/>
    <path class="cls-1" d="m540.49,68.74l.08.57,1.53.05.66.31.89,1.26.34,1.18.64.03.76.8-.12.68h.68v-.97s.63-.68.63-.68l.85-.2h.51l.4.87.69.42.96-.77.49.31.47-.18.84.54.79-.06.65,1.05,1.79.27.76.51,1.12,1.25-.45.87,2.26.41,1.05-.12,1.31.67h.69s1.63,1.28,1.63,1.28l.06,1.13.91.24-.25,1.1-1.72-.48-.96.49-.08.79-.41.23.27.9-1.04.79-1.33.3,1.13,1.76-.33,1.42.17.51,2.41.78,1.52,2.59-.09.54.91.18.81.77,1.11.08.43.55-.23.26.17.4.73.24-.17.93-1.59,1.48h-.57s-.76.7-.76.7l-.26.74.75.14,1.4-1.11,2.84,1.08.03,1.46-.55.72-.64,2.66.15,2.42-.37.28-.56,2.45.72.16,1.09-.47,1.34.48.68-.19.6.6.08,2.02-.27,1.27.37.4.35,2.47-.15,2.58.42.97-2.18,1.54-.05,1.31.49.56-.72.57-.58-.12.12.28-1.09,1.74.29.56.95.07.16.77.37.22-.42.7,1.05.43-.06.35-1.56-.87-1.52-3.34-.58-.6-2.58-.34-2.11.82-.65-.68-.7-.03-1.03.75-1.45.4-.14,2.5-1.02,2.14-1.31.9-2.72.42-1.42.69-5.08,1.41-.36.44-1.43-.91-1.08-.06-.98,1.55-.03.96-1.41.87-1.91-.65-1.26-.87.03-.58-1.62-.42-1.19-.94-.97-1.44-1.45-.94-2.57-3.96-2.81-1.45-2.83-.96-1.24.03-3.23,2.49-.93,3.77.29,1.27-.36,1.07.52,1.22-.6,2.15-1.05,1.83,1.01,1.3.09,1-1.01,1.81,2.22.86.6.76-2.72,1.91-.97,1.44.09.73.94-.27.16.28-.31.51-1.3.43.54,1.1-.68,1.35.81.46-.48,2.01.33.41-.25.36,1.44.74-.24.66.7.68-.11.36,1.49,2.26.53.22.14,1.98,1.13.67,2.89.52.86.67,1.48.53.63,1.05.94.16,1.74.99.69,1.21,1.68,1.57,1.5.27.53.66,2.08-.11.4.42,1.52.22.53.68.43-.08.95.82,2.1.61.52-.96,1.96-.53.16,1.64,1.51,1.04.49,1.23,1.24,1.37-.08.57,1.41,2.11-1.4,2.35-2.36.71-.51.56-.75.18-1.34,1.33.13.69,1.08.32.38.44-.37.32.17,1.06-1.3,1.39.15,1.23,2.17,1.72-.03.77-2.02,1.43,1.27,3.57,1.33,1.22,1.1.44-.81,1.13-1.77-1.01-.72-.8-.9.02-.44-.6-.55-.18-2.66,3.84-1.93.49-.5,1.19.05.78-1.35-.38-.36.34-.06-.37-1.38-.31-.75.39-.66.05-.04-.27-.82.94h-.37s-.54.87-.54.87l-1.64.32-1.85-.49-1.71.95h-.53s-1.11,1.55-1.11,1.55l.73,1.28-1.08,2.14-1.52.59-1.39-.57-.71.3-.84.81-.31.89-.56-.03-1.72.91-.2,1.1-1.1.66-1.39-.04-.28-.56-2.44.64-.49.67.27,1.63-.36.3-1.11.31-1.04.79-1.09.03-2.69,1.67-.83,1.68-.58-.14-.86.35-1.03-.49-.8.23-1.39-.97-1.83.65-.96-.35-.55-.98-1.65-1.34-1.22-2.18.97-1.33-1.47.08-1.33-.34-2.93,2.29-.92-.3-.91.53-1.51-.05-.98.51-.36.61-2.31.43-.94.63-.63.02-.25.56-1.37.05-1.6.54-.49-.32-.97.14.38-1.24-.86-.19.9-6.43-3.76-3.52-.97-1.55-.94-.32-1.91.91-3.32-1.89h-1.72s-1.59.73-1.59.73l-1.38-.92-.37-1.01-.78.03-.95-.69-.88.08-.22-.72-.84.42-.84-.57.21.19-1.18,1.8-1.12-.67-4.92,1.01-1.61-.9-.02.59-2.38,2.39-.51,1.83-1.6.36.29,1.7-2.14.7-1.01.76.22,1.1-.43,1.92-.48.81v.64s-.46.5-.46.5l-.15,1.47.59,3.73-.82,1.61.29,1.44.85-.33,1.1.3.03.66,2.33-.28,2.17,3.76.12,1.22-.99.15-.14.34.62,2.39.91.92-1.2,2.9-2.12,1.76-.97,1.54-.23,1.04.57,1.79-1.05.14-.74-.41-3.98.2-3.91-.55-2.15-1.35-.9.17-.54-.24-.69.4-.42-.27-3.99-2.35-.8-.16-.61-.59-1.33.12-.57-.36-.29-1.01-1.2-1.34-1.26-.24-1.45-2.96.19-.46-.28-1.2.98-1.51-.68-2.37,1.32-1.38,1.5-.77.1-2.9,1.77-2.73-.57-1.11.06-.48-.56-.63-.81.57-1.62-.2-.41-.55-.2-1.18.68-.38-.09-.39,1.11-1.93-.04-1.56,1.21-1.31.56.29,1.63-1.12.31-1.94,1.12-1.17.47-1.75-3.11-.7-1.55.15-.25-.17.2-.41-2.38-.19-4.91-2.58.93-3.02-.2-.45.33-1.57,1.19-.93.78-1.27.7.08.67.52.86.02,3.08,1.55,2.01-.63.35-.96-.77-1.46-.47-.23.27-.59-1.93.02-.41.99-.85.21-.4-.43-.51.44-.59-.52-.26-1.44-.34.21-1.2-.54-1.25.18-.42-.21-1.92.66-.81-.18-.29.28-1.58.15-.54-.21-.75.72-.57.12-.21-.39-1.31-.46-.95-.89-1.53-.68-.31-.62-3.73.17-.27-1.32-2.08-.47v-.67s-.34-.23-.34-.23l.18-1.9-.41.05v-.41s.77-.57.77-.57l-.44-1.1.86-.22-.24-1.07-.85-1.38-.96-.66.07-.96-.53-.48-.14-.78.82-.36.33-.54-.19-1.5.32-1.15-.51-.97.5-.26-.07-.59.38-.33-.46-2.38-.28-.15v-.8s.43-.56.43-.56l-.21-.22,1-.88,1.84-.55.58.96,1.77.27,1.02.53-.22.77.24.64.62-.17.36.46.9.31.09-.53.42-.16-.24-1.78.66-.36-.2-.4.85-.82-.38-.86.28-.23-.1-.62-1.76-.17-.9-.86-1.59-.6-.5-.7-.43.24-.04-.32-1.32-.08-.17-.39h-.6s-.3-1.09-.3-1.09l.63-.17v-.73s-.78-.37-.78-.37l-.17.53-.78-.36-.7.71.15,1.24-.86-.12-1.79,1.01-.61-.22-.35.45-.52-.35-.91.65-.88-.07-.32.78-.67.28-.45-.17v.44l-.95.28-.46.3.06.26-2.91.1-.48-.38-2.06.91.16-.5-.37-.42.28-.16-.53-.16-.18-1.07.57-.24.57-.85-.14-.44-1.91,1-1.01-.12.28-1.1-1.13.36-1.23-.65-.78.34-.46-.53.02-.67-.24.17-.27-.45-.07.45-.65-.42-.29.17-.18-.45.47-.64-.49-.74-.24.2-.79-.21-.58.4.33-.87.26-.02-.78-1.02.31-.63-1.52.24.47-1.02-.14-.82-.52-.23-1.37,1.38-.84-.02-.63-.68-.55.23.06.34-.58.54-1.79.23-1.04.73-.63-.06-1.02-1.38-.9-.41-.27.19-.13-.43-.88.04-.62.29-1.4,1.75-1.11.21-.87,2.39-.48.21-.57,2.19-1.59-.87-1.73-.02-.34-1.83-.85-1.44-8.09-7.56-1.24-1.67-.54-1.66-.34-3.25,1-1.61v-1.2l1.01-.3,1.44.88.43-.05,1.16-2.37.19-1.22,1.27-.74,1.71-.23.68-.76.16-1.12,1.17-.26.54-1.64.85-1.16.48-1.93.53-.58,4.86-.76,2.97-.04,1.15-.42,4.37-4.3,1.4-2.31,1.04-.87,3.48-1.18,2.59-1.77,4.81-.16,5.37-2.53,7.98.18,7.51-4.57,3.9-4.59,4.34-3.12.85-1.63.45-3.22,1.87-4.47-.23-1.19-1.01-1.7-.08-.87,3.18-8.4-1.23-1.92-.13-.8.52-.72v-.61l-1.15-1.61-.13-1.4,1.26-1.05,1.4,1.54,1.22-.33-.1-.97.46-.36.61.48.4-.19.47-.65-.15-.42,1.25-.44.3-.81-.55-.49.75-1.51h.84l1.06.52,1.64,1.92,2.69,2.09,1.23.25.86-1.39,1.02-.13,2.57,2.31,2.96.83,1.16,2.33,2.11.8,2.21,1.75,2.12.66.35-.27.28-1.63,1.48-.64.11-1.34-.54-.93,1.14-1.11-.84-.19.75-1.73.64-.3,1.01,1.84,2.07-2.85,1.09-.27.64-1.69-.23-.69.2-.18-.57-.39-.03-.74.76-.4-.14-.78.3-.56.47-.17.11-.76.67.05.33-.68-.25-1.06.38-.4-.08-1.06-.5-.59.24-.54-1.02-1.16.56-3.22-.33-1.68-.36-.35.03-1.28.36-.47,1.69.45.39-1.34-1.73.24-.38-.39-.29.1-.29-.25.02-.95-.85.1-.85-1.08.71-.35.86-1.81.89-.45.17-3.5,1.55-1.3.34-.56v-.82l.46-.15.45.43.91-.24,1.93.71,3.51,2.94,2.99,3.74,1.49.37.23.97,1.5.19.8.52.6-.17,1.97.33.68.58-.11.39.48.6-.35.47.28.07.24-.44.33.23-.2.68.94.42.35.57-.42.32.92.56.07.42.94-.09,1.66.56.08,1.52-.66,1.72-1.32-.27-1.69.34-.13,1.1-1.25.92.79.42.5.96.74.3-.15.4,1.41-.45.58.24-.24,1.29-.48.26.13.71.97.51.28.83,1.52-.46-.2,1.88.54-.78,2.55-.02-.14,1.18,2.08.46,1.46-1.35,1.21.61,1.29-.35.38.55.48-.05.08.52,1.43-.3.43-.44,1.31.17,1.4.69,2.08.43,1.29,1.16.78-.08.78-.55,1.61.02.77,1.09,1.73.94,2.04.7.92-.15.31,1.57.63.35.97-.48.54-1.1.51-.1-.08-.99.53-.9.83-.2.29.93.28.04.87.03.86-.42.55-1.05-.61-.71-.18-1.45.58-.26.41.34,1.68-.14,1.3.67.68-.13.4-1.39.69-.34.6-1.99-.12-1.06.46-.76.42-.07-1.3-2.82.97-.21.61.2.96-.46.13-.35.28.69.53.21-.1.48.89.8.81.19.24,1.62.85.78,1.26-.41,1.12.78h2.07s.74,1.34.74,1.34l.88.37.19-.79,1.18-.44.53-.9.94-.08,1.31-1.69.76-.02.76.95.93,2.68.45.2,1.52-1.09.85.87,1.05,3.45,2.82-.41Z"/>
    <path class="cls-1" d="m427.48,241.76l.27.72.3-.18.17,1.66-.72,1.04-.08,1.03-.67.87-.5,2.31-1.09.97.13,1.24.99,1.04-.18,1.92,1.01,1.7.42,3.31.41.31,1.49,4.46-.83,2.37.2.49.57.12-.06,1.46-.47,1.23,1.05,1.55,1.51.05.17.6.83.81,2.11-.42,1.86.72.6-.41.81.86,1.39.61.03.77,1.69.08.2-1.66,1.2-1.25,2.36.05,1.37,1.79,2.45-1.41.75-.96-.2-1.17.87.24.73-.83,1.33-.54.64.31.22.14-.18.97.38.61-.39.75.41.61-.62.63.25.49,2.22.91,2.07,1.36.42,1.72-1.88,1.78,1.18,1.04.54,1.15.82.47.9,1.24,2.19,1.46-.93,1.45.5.44.96-.22.09-.26.7.92.2,1.47.6-.25,2.73.91,1.24.96.8,1.38,2.72,1.29-.2.83.48.6-.93,1.1-1.55-.17-1.61.47-.91-.84-.54-1.1-.45.03-1.25,1.05-.61.05-.83.88-.5-.04-1.16,1.6-.59-.07-1.19.98.21.47-.49.71-.04.87.87.52.37.98,1.83,2.29-.33,1.12-.75,1.03-.53.23-.93,2.42-1.93,3,.1,3.68-2.08,1.12-.31,1.41-1.01.97-.05,1.29-1.56,1.16-.42.96-1.26.11-1.09.99-.65.15-.61-.14-.36-.54-.12-.68.37-.74-.47-.72-.21-2.32-.51-.55-.89-.25-.02-1.06-1.4-.73-1.22.73-1.2-.3-1.73-.71-.42-.93-.9-.65-.67-3.56.84-.66-.23-1.06-1.78.06-.12-.22-.67.33-1.12-.36-1,.37-.57-.44-.64-2.08-2.33-.56-1.59.67-.68-.17-1.81.56-1.92-.54-.44-.44-3.52-1.5-1.95-.24-.13-.28-4.66-1.3-1.97.38-1.23-.54-1.09.61-.68.95-.85.29-1.56-.94-.63-.73-.2-1.91-1.83-.96-1.75.5h-1.45l-2.39,1.47-1.07-.26-1.04-1.03-1.35-.12-2.91,1.19-1.1,2.47.65.57.27,2.67-3.54,1.01-4.6.35-1.66.97-2.37.09-.66,1.2-2.78.3-1.17-.41-.99.14-.06,1-.72,1.07-1.6-.65-.92-.75-.44.15-1.24-.89-1.41-.48.15-1.41-.36-.34-1.56-.38-.77.81-1.11.47-.29-.44-1.88-.1-.84-.66-.41-.94.29-.76-1.32-.78v-.7s-.7-1.46-.7-1.46l.12-.47-1.24-.59-.68-.26-2.84.03-.78-.52-1.5-.26-1.19.85-1.4-.08-1.02-.26-.52-1.23-.76-.33-.45-.75-1.64-.07-.09.39-.95.4-1.07.06-1.27-1.33-1.75.49-1.83-.42-.61-.63.28-1.1-.48-3.02-1.89.44-.14.47-.83.54-1.57-.45-1.77.54-.65-.34.07,1.05.63,1.06-1.71,1.5-1.58-.65-1.35-1.87-1.3-.92-2.56-.55-.49-1.12-.92.03-1.31-.67-1.45,1.29-.8-.2-1.81-1.38-.65-2.01-1-.16-1.46-.77-1.54-.24-.2,1-1.72,1.07-1.55.09-1.71-1.08-1.11,1.03-.68.22-.51-.18-1.4-1.47-3.85,1.72-.53,3.81-1.4,1.14-2.14.26-1.31.68-.49,1.51-2.63.06-2.4,3.03-2.2.52-1.08-1.09-.35-.93-4.31-1.62-3.67,1.94-1.64-.24-1.11-1.86.47-1.97-.45-1.27-1.07-1.29-.26-2.61-1.93-1.16v-2.76l-.1-.57-.62-.53.37-.97-.75-2.32.91-2.35-.39-1.28.75-.69,1-2.5.44-.1.5-.77-.96-2.46-1.08-.34-1.58-1.55.63-1.74,1.32-.72,1.8-2.85.39-.34.97.68.64.99,1.46,1.22,1.14-.83.23-.55.85-.23-.03-.44,2.74.08.67.45,1.18-.55.87-1.43.71-.18.74.11.2,1.1.54.55,1.11-.24.74-.74.98.9,2.96-3.1.5-.86.02-.7,2.13.49.2.61,1.73-.41.16.59.56.46.91.53.9.1,1.58,1.04,1.48-.51,2.29.19.85-1.21,2.49-1.07,2.93.78.9-.39.95-1.72.85.03.38-1.82-.37.11-.93-.63.19-1.08-.93-.86.05-.93.36-1.08,1.62-.52.87-1.96,1.84.55,2-.62.29-.49,1.83-.22.18.74,1.48.37,1.03-.94.46-1.21.49-.22.42-.81,2.23-.78.51-1.77,1.11-1.04.05-1.97-.52-.36-.13-2,1.4-.56,2.15.55.86-.35,1.14-1.11,1.63-.54-.32-.69.07-.9-1.06-.49-1.56-1.32-.27-1.32-.44.33-.44-.72-.68-4.05-.97-.26-1.73-1.74,1.42-.76,1.08-1.75.03-.6,1.54-1.37-1.46-1.63-1.23-.66-6.92-1.87-.45-1.75.55-2.48,2.34-5.21,1.1-1.17.99.21,1.39-.58.9.81.72-.38.27.54.7-.3.25-.62.93-.76,1.27-.21,1.84.05.51.4.46-.22,1.05.76,1.79-.51,1.44.74,1.15,1.86.64-.62.91.22.96-1.26.3.36-.59,1.64-1.14.84-.73.07-.23.52,2.32,2.94.92-.07,3.62,3.29-.17.39-1-.38-.62.27-1.53,1.49-.17.41.41.75-.81.67-.89,1.48.52,1.59.85.59.19,1.25,1,1.08,1.44.82,3.14-.15.41,2.35.58.6.63-.16.41.63,1.63.53.26.33-.09.89,2.53,2.46,5.98,3.46.71.08.09-1.39.48-.22v.27s.79.24.79.24l.4.6.57-.16-.15,1.07.79,1.2.59-.06.87-.97,1.27-2.47,1.57-.31.61-.53-.08-3.5-.36-.8.42-.25-1.71-1.72.66-1.59,1.95-2.23.2-.75-.71-.22-.84-1.57-.12-.43.38-.42-.15-.65,2.82-.55.06-.72-.66-.6-.23-.92.72-.52.23-.89.94-1.3,1.61-1.39.32-1.11-.2-.86-.89-1.31.11-.79-1.2-2.03.3-3.05-2.07-1.57-1.54-2.41-1.31-.6-.49.1-1.09-1.09-1.01.07-.43,1.12-1.01.32-.36.68-1.85.22-1.16-.37-.75.26-.94-.68-1.39.4-.87-.12-.19-.55-1.06-.55-.79-.95-.07-.62.64-.63.8-1.71,1.78-.72.29-1.63h-.29s.59-.31.59-.31l.42-.7-.26-1.02-.78.12v-.33s-.63.42-.63.42l.09-.52,1.04-.82v-1.04s.79-.22.79-.22l1.79-2.07,2.17-4.39,1.88-2.07.14-.97-4.1-8.66-1.89-2.96-.77-3.16-.27-.12-.42.64-.95.06-.34-.45.15-1.41-.35-.57-.89-.4-2.37-.24-1.15-.66-.56-.92-.93-4.26,1.73.02,1.59.87.57-2.19.48-.21.87-2.39,1.11-.21,1.4-1.75.62-.29.88-.04.13.43.27-.19.9.41,1.02,1.38.63.06,1.04-.73,1.79-.23.58-.54-.06-.34.55-.23.63.68.84.02,1.37-1.38.52.23.14.82-.47,1.02,1.52-.24-.31.63.78,1.02-.26.02-.33.87.58-.4.79.21.24-.2.49.74-.47.64.18.45.29-.17.65.42.07-.45.27.45.24-.17-.02.67.46.53.78-.34,1.23.65,1.13-.36-.28,1.1,1.01.12,1.91-1,.14.44-.57.85-.57.24.18,1.07.53.16-.28.16.37.42-.16.5,2.06-.91.48.38,2.91-.1-.06-.26.46-.3.95-.28v-.44l.45.17.67-.28.32-.78.88.07.91-.65.52.35.35-.45.61.22,1.79-1.01.86.12-.15-1.24.7-.71.78.36.17-.53.77.37v.73s-.62.17-.62.17l.3,1.1h.6s.17.38.17.38l1.32.08.04.32.43-.24.5.7,1.59.6.9.86,1.76.17.1.62-.28.23.38.86-.85.82.2.4-.66.36.24,1.78-.42.16-.09.53-.9-.31-.36-.46-.62.17-.24-.64.22-.77-1.02-.53-1.77-.27-.58-.96-1.84.55-1,.88.21.22-.44.56v.8s.29.15.29.15l.46,2.38-.38.33.07.59-.5.26.51.97-.32,1.15.19,1.5-.33.54-.82.36.14.78.53.48-.07.96.96.66.85,1.38.24,1.07-.86.22.44,1.1-.78.57v.41s.42-.05.42-.05l-.18,1.9.33.23v.67s2.09.47,2.09.47l.27,1.32,3.73-.17.31.62,1.53.68.95.89,1.31.46.21.39.57-.12.75-.72.54.21,1.58-.15.29-.28.81.18,1.92-.66.42.21,1.25-.18,1.2.54.34-.21.26,1.44.59.52.51-.44.4.43.85-.21.41-.99,1.93-.02-.27.59.47.23.77,1.46-.35.96-2.01.63-3.08-1.55-.86-.02-.67-.52-.7-.08-.78,1.27-1.19.93-.33,1.57.2.45-.93,3.02,4.91,2.58,2.38.19-.2.41.25.17,1.55-.15,3.11.7-.47,1.75-1.12,1.17-.31,1.94-1.63,1.12-.56-.29-1.21,1.31.04,1.56-1.11,1.93.09.39-.68.38.2,1.18.41.55,1.62.2.81-.57.56.63-.06.48.57,1.11-1.77,2.73-.1,2.9-1.5.77-1.32,1.38.68,2.37-.98,1.51.28,1.2-.19.46,1.45,2.96,1.26.24,1.2,1.34.29,1.01.57.36,1.33-.12.61.59.8.16,3.99,2.35Z"/>
    <path class="cls-2" d="m99.37,223.66l.62.51,1.23.28,1.67,1.72,3.71.95,3.61-.21.51.52.75.13,1.2-2.21-.12-1.19,1.02-.61.91-1.51,1.05.65,1.14-.12.71.93.89.33,4.38.16.14.44,1.37-.35.3,2.18,1.51.21.95.9h2.37s1.82.7,1.82.7l.54.99-.09,1.31,1.43.96,1.92-1.07,1.8.24-.14-.68.22-.31,1.95-.24.71.48,1.62-1.38.89.14,2.97-.43.22,1.1,1.16,1.93,1.21-.16.28.32-.08.57-2.88.85-2.01,1.05-.29,2.65,1.18.66,3.02-.89,2.83.77.13.19-1.04,1.02.06.46,2.92,2.98,2.56,3.42.07,1.39-.45.4-.93.14-.33.83.13,1.83.93.51,2.66.52,1.93-.4.54.59,1.03-.47,1.08.45,1.38-.37,4.06.47,1.53-.14.96-.62-.1-1.04.6-.89,1.37-.26,1.54-1.02,1.45-.19,1.16-.57,1.88-.12.83-.97,1.64.57,3.02-.2.36.73-1.42,1.22-1.07,2.12-.74.65-.18.61.62.37.92-.44,2.73-.12.73.3,1.2-.45.96-1,.38-1.82-.3-.48.1-.76.92-.55,1.53.02.77-1.04.88-.04.19-1,.8-.8,1.19.4.78-.17.72.63.7-.08.63-.56,1.2.44,1.43-.2.56.35.84-.16.6.39-.91-1.72-.24-1.74-1.92-.04-.75-.9.77-1.49h.44l1.35-1.26,1-1.79,2.74-2.36.71,1.68.7-.26,3.32.08.18.3,1.01-.02.69.43.72-.24.66-.7,1.57.36,1.91-.65,2.17-.13.53-.87,1.15-.78-.17-3.1.43-.97-.28-.47,1.41-1.79.66-2.24.75.2.71-.69,1.44.62-.24-.93.57-1.22.53.19.2.64.62-.15,1.14,1.04,1.32-.23.87.27,2-.75,4.72.29,3.75-.46.88.56,2.87.56,1.1-.15.19.53,1.55.18.33-.17.86-3.09.9.25,3.32-1.21.74.14,1.22-.84,2.05.21,3.66-.64.83.68.5-.91,1.95-.37.96-.55.44.31.93,1.89h.7s.93-.98.93-.98l1.44.45,1.01-.6,1.81.85.43.6,3.44-.21,1.43.92,1.13.06,2.51-1.21,1.62-.13.24.63-.36,1.46.81-.58,1.8-.24.57-1.08-.9-4.25-1.44-2.97-.27-1.28-1.39-1.91-.6-3.24,2.2.14,1.37-1.22.76.17.25-.47.62-.1,1.56-1.05,2.45-3.59.77-.22.81,1.64-1.54,3.05-.39.26-.63,2.56,1.43,2.33.83.19,1.51-1.46.76-.34,5.58-.99-.31.66.33.32,1.38-.2.58.26.68,1.03,3.96-1.26,2.9-.59.37.3.78-.11.3.52-.45,2.41.18.37h.4s.07.47.07.47l.77.47,1.27,2.83,2.72,2.02.8,1.83h1.37s2.54-1.72,2.54-1.72l4.04.69-.55,2.48.45,1.75,6.92,1.87,1.23.66,1.46,1.63-1.54,1.37-.03.6-1.08,1.75-1.42.76,1.73,1.74.97.26.68,4.05.44.72.44-.33.27,1.32,1.56,1.32,1.06.49-.07.9.32.69-1.63.54-1.14,1.11-.86.35-2.15-.55-1.4.56.13,2,.52.36-.05,1.97-1.11,1.04-.51,1.77-2.23.78-.42.81-.49.22-.46,1.21-1.03.94-1.48-.37-.18-.74-1.83.22-.29.49-2,.62-1.84-.55-.87,1.96-1.62.52-.36,1.08-.05.93.93.86-.19,1.08.93.63.37-.11-.38,1.82-.85-.03-.95,1.72-.9.39-2.93-.78-2.49,1.07-.85,1.21-2.29-.19-1.48.51-1.58-1.04-.9-.1-.91-.53-.56-.46-.16-.59-1.73.41-.2-.61-2.13-.49-.02.7-.5.86-2.96,3.1-.98-.9-.74.74-1.11.24-.54-.55-.2-1.1-.74-.11-.71.18-.87,1.43-1.18.55-.67-.45-2.74-.08.03.44-.85.23-.23.55-1.14.83-1.46-1.22-.64-.99-.97-.68-.39.34-1.8,2.85-1.32.72-.63,1.74,1.58,1.55,1.08.34.96,2.46-.5.77-.44.1-1,2.5-.75.69.39,1.28-.91,2.35.75,2.32-.37.97.62.53.1.57v2.76l1.93,1.16.26,2.61,1.07,1.29.45,1.27-.47,1.97,1.11,1.86-.25.5-.35-.08-1.22.7-1.67-.8-.98.18-.44.74-.86.48-.56,1.55-1.81.03-.36-.41-1.27-.07-.98.56-.43,1.09-1.04.51-2.76-.41-.95.38-.71-.48-.63.42-.55,1.03-1.35-.4-.92,1.46-1.49-.67-1.74.65-.26.7-2.05,1.23-.28.63h-1.33l-.67.94-.63-.25-.84.55-.85,1.19-.77-.25-.96,1.32-.92-.04-1.3.48-1.21-.31-1.53.22-.8-.38-.13.56-.93.67-.72,1.67-1.43.26-.55.42-2.04-.58-.35-1.2-.62-.6-.68-1.47-1.2.08-1.21-.48-2.55.53-.52-.57-2.59-1.26-.78-1.6-1.85.32-1.13.82h-1.04s-.89.49-.89.49v.77l-2.13.97h-.84s-1.61.94-1.61.94l-.51-.44-.09-.75-1.79-1.37-.28-.76-1.24-.37.14-.36-2.46-.26-.96,1.28-.04,1.14-1.01.56-.83-.16-1.37,2.63-1.51.89-.68-.02-.26.42-.8-.11-.46.33-1.34-.75-1.11-.21-.65-1.39-.89-.55-.88-1.21-.85.17-.52-.23-.54.84-.41.04-.33-.57-.53-.02-.88-.62-1.35,1.25-.64.14-1.45-.48-1.18.79-1.44-.06-.76,1-.77-.02-.83.68h-2.23s-1.47,1.01-1.47,1.01l-.39-.87-.82-.4-.9.13-1.13,1.03-1.26-.53.11,1.63-.36.82.55.78-.44.77-2.74,1.85-2.51-.67-.6.82-.07,1.55-1.24.28-.19.31-.13.68.45,1.4-.3,1.1.48.28-1.41,1.65-1.18,2.93-.59.22-.19.74.32,1.54-.5.76.76.66.55,1.87-1.04.32-1.44,1.09-.38.7-.68-.09-1.22.52.5.65-.89,1.06-.33,1.43-.93,1.91v.79s-.34.23-.34.23l-.86-1.06-2.23.72-1.62-.36-.3-.55-3.29-.54-1.66.34-.52-.4-.85.19-1.04.87-1.04-.33-.62.87-.82.2-1.49-.51-.1-1.02-1.52-.3-.72-.7h-.4s-.15-.55-.15-.55l-.92.18-.74,1.11-1.19-.35-1.85-2.57-1-.8-.85.81-2.26.81-.71-.38-2.17-.21-.4-1.48,1.92-.74.85-1.84.79-.37.55-.89-.6-.64-.23-.86-1.95-.29-.51-.56-1.04-.03-.63-.82.11-.61-1.39-.08-.31-.51-.67-.28-.06-.9.39-.71-.64-.8-1.98-.53-.43-.77-.51.17-.97,1.12-3.09.25-1.61.85-1.54.16-.61,1.06-1.27.28-.88.88-2.59.69,1.14-1.45-.4-.5-3.36.59-2.85-.61.17-.53-.51.32.05-.35-.42-.43-.62-.08.19-.2-.42-.39-.99.6-.13-1.12.41-1.66-.17-1.27-.47-.51,1.16-1.51.46-2.51.84-.72.29-1.67-.29-.81.46-.96-1.37-.56-.75-.97-1.37-.94-.68.06-1.22-.6-.9-.06-.52-.46-.19-.3.57-2.29-1.45-1.13-1.04-1.31-.34-.95-.97-.6-.63.17-1.25,1.29-1.8-.33-.91.39-.22,1-.52.26.06.45-1.28,2.14-.23,1.58-1.98.51-.19.45-.21,1.1,1.11,1.46-.15.89-1.62.02-.45.71-.6-.53-2.52-.97-2.77-.5.07,1.95-.55.46-.48,2.16-.84.85.17.89.73.89-.52,2.34.18.5-1.42-.21-1.65.34-1.07-.32-1.31,1.64-1.09.24-.31.45-.67-.08-.75.46-.12-.39-1.02-.15-.54-2.61.37-.37-.05-.69-1.13-.45-1.36-1.31-.84-1.53.13-.87-.26-.61.23-.6-.93-1.35-.15-1.13.07-.49.83-.26.67-1.14.91-.12.7-.85.94-1.69.07-1.75.29-.99.64-.54-.13-.47.36-.66.58.24,1.04-.29-.55-1.25.6-1.04-.51-1.02-2.24-1.12-.95-1.61,2.29-1.68,1.22-1.48.23-.83-.56-2.03-.61.13-1.1-.52-.08-2.73,2.32-3.47.59-1.57.49.2,1.07-.99,1.45.17.03-1.46,2.46-.32.13-.24-.71-.6v-.85s1.21-.15,1.21-.15l.81-.97.02-.41-1.45-1.04.45-1.86-.58-.47-.12-.78-.46-.42-.27-1.56.04-.4,1.73-1.47.17-1.52-.23-.91.19-.67-.46-.31.23-.4-.28-.56-.74-.17-.26-.6,1.48-1.64.68.13.65-.37-.39-.74-2.41-.57-.46-.56-1.85-.49.47-.95,1.78-.4.67-.55,2.23.25,1.01.87.63-.2.82-1.27.3.2,1.18-.31.23-.43.49-.12-.02-.46,1.67.13,1.16-1,.38-.83.6.21,1.65-1.18.75.2.05.28.63-.13.99-.84.16-.58.85-.43-.27-.74,1.21-1.72.05-.56,1.52-1.23.74-1.09.96-.59.32-2.01.67-.9,1.97-.39.71-.91,1.16.15.6.58-.73-1.7.58-1.35-.29-.44.67-.61-.12-.65.27-.38,1.88-.81.37-1.37,1.79-.65-.24-1.61-.71-1.55.28-.9-.26-.79.5-.74-.32-.75.16-.55-.41-.89h-.66l-.61-.52-.95.13-1.06-2.99,1.02-1.47.2-.81-.33-.75,1.83-4.93Zm186.07,80.14l2.2-.52,2.4-3.03,2.63-.06.49-1.51,1.31-.68,2.14-.26,1.4-1.14.53-3.81,3.85-1.72,1.4,1.47.51.18.68-.22,1.11-1.03,1.71,1.08,1.55-.09,1.72-1.07.2-1,1.54.24,1.46.77,1,.16.65,2.01,1.81,1.38.8.2,1.45-1.29,1.31.67.92-.03.49,1.12,2.56.55,1.3.92,1.35,1.87,1.58.65,1.22,1.26.62.08,1.38,1.96,1.26.83,1.13,3.83.42.58,2.94.48,1.64-.62.85.22.67.67-1.72,1.01-.14,1.34-1.34,1.59-.69.23.16,1.42-1.36,1.24,1.49,2.64.58,2.84.62.6h.96s1.06,1.85,1.06,1.85l1.11.74.66.09-.38,1.18,1.68,1.3,2.24.45.19.61,1.61.68.14.4-.71,1.41,1.07,1.22.16,3.04-.28,1.91,3.19,1.91.56.67,1.05.31.78,1.51-.17.59.58.7,1.72.5,1.1,1.09,3.02,2.07,1.12.38.26,1.41-.22.62-1.16.51-.67.88-.22,1.08-1.43.84-1.6-.48-.62-.81-1.18-.71-2.2,2.06-2.34.5-1.67,1.66-.86.16-.73-.56-1.33.44-.12-.98-.28-.16-.88-.06-.8.32-.33-.29-.42.65-2.2.4-.99-.13-.48.46-.48-.02-1.05.98-.79-.38-1.19.31-.86.88.27.72-.58,2.47,1.31,1.89-1.72-.39-1.7.4.34.22.09,1.26-.16.67-.66.61.18.67-.43.07.67.81-.24.28.38,1.3-.1,1.19-3.49-.08-.79.65-.94.15-.86-.47-.27-.99-1.26-.09-1.67.87-2.69-.13-.89.83-.52-.06-.57-.23-.09-.65-1.26-.3-1.1-1.27-.84-.42-.05-.63-1.29-.71-1.05.12-.45-.44-.65.56-1.55-.03-.78-1.52-1.19.02-1.75-.58-.38.26-1.49-.97-.09-.67-1.46-.31-.4-.83-.84-.16-2.42-2.09-.34-1.86-.68-1.24-1.18-5.37-.64-.33-.94.12-3.53-1.41-.54.32-.68-.25-1.47.21-.38-1.4.8-.46v-.87s.5-.31.5-.31l-.96-1.92.64-1.06,1.84-1.74.1-1.22-1.17-.42.12-.61-.49-.33-.28-1.12.29-1.27-1.68-1.18.26-.99-.47-.83-.79-.48-2.24-.24-.3-.33-.67.33.06.52-.45.72-.48.31-.61-.2-.4.91h-.32s-1.28-2.03-1.28-2.03l-.38-.08.21-.32-.47-.54.29-.49-.54-.68v-.44s-.35.07-.35.07l-.07-.52-1.03-.3-.42.18-.73-.53-.88.48-1.86-1.09.96-.49.92-1.93.71-.55.1-.63-1.08-2.06-2.13-.96-.63-.91-.08-.28.59-.21.21-2.55-1.13-.56.35-1.19-.97-2,.54-1.08,1.43-.87.85-.93,1.79.96,1.69-1,2.59-.17.86-2.36.45-.44.02-2.11,2.16-.98.42-.61Zm-186.07-80.14l-.44.05-.46-1.86-1.25-.41.06-.49-.45-.77.68-.25-.24-.35.44-.39,1.96.32,1.47-.64.29.04v.35s.99.06.99.06l-.33.59-.88.11.2,1.5-.63.33-1.41,1.81Z"/>
    <path class="cls-1" d="m68.66,266.74l-.47.95,1.85.49.46.56,2.41.57.39.74-.65.37-.68-.13-1.48,1.64.26.6.74.17.28.56-.23.4.46.31-.19.67.23.91-.17,1.52-1.73,1.47-.04.4.27,1.56.46.42.12.78.58.47-.45,1.86,1.45,1.04-.02.41-.81.97-1.2.15v.85s.7.6.7.6l-.13.24-2.46.32-.03,1.46-1.45-.17-1.07.99-.49-.2-.59,1.57-2.32,3.47.08,2.73,1.1.52.61-.13.56,2.03-.23.83-1.22,1.48-2.29,1.68.95,1.61,2.24,1.12.51,1.02-.6,1.04.55,1.25-1.04.29-.58-.24-.36.66.13.47-.64.54-.29.99-.07,1.75-.94,1.69-.7.85-.91.12-.67,1.14-.83.26-.07.49.15,1.13.93,1.35-.23.6.26.61-.13.87.84,1.53,1.36,1.31,1.13.45.05.69-.37.37.54,2.61-.61.54-1.72-.24-.45.65-1.5.44-1.34-1.68.12-1.03-.53-.51-2.96-.06-.87-.52.16-1.98-.98-.61-.3-.85-.74-.37-.55-1.23-.88-.94-1.28.38-1.65-.63-.79-.62-.03-.89-.39-.63-1.22.51-.77-.62-1.4.51-.93-.19-1.63-.93-.93-1.16-.64.09-1.21-1.04-1.92-.55.52-.82-.43-.11-.12-1.51.46-1.01-.81-.99.55-.64.05-.95.99-1.08.06-.71.82-.72-.3-1.62-1.6-.94-.25-.53.07-.52,1-.6-.4-.64-1.73-.39-.79,1.02-1.25.15-.15.37h-.39l-1.28-1.19-1.66-.65-.61-.88-.99-.45-.69-1.09-3.9.06-.62-.92-2.5-.22-1.15-.78.11-.89-1.07.17-.97-.48-.62-.59v-.51l-2.53.49-1.38-.31-.43.89-.94.37-1.62-.45-1.02-1.16.74-1.31-.13-1.55.75.24.54-.66,1.07-.09.22-2.74-.58-1.01-.57-.1-.21-.41.52-1.3,1.1-1.34-1.05-.75-.16-1.37.38-.68-.4-.86-.84.55-.56-.06-.58-.62-.57-1.78-1.76-1.37-1.57.06.94-.78.06-2.35.85-.73.55-1.46-.65-.58-.96-1.74-1.02-.72-.35.23-.37-.21,1.76-2.72-.75-1.37-2.02-1.79.06-.58-.91-.89,1.7-1.38,1.23-2.8,2.72-1.83.73-.92,1.41-4.26.63-.92,2.15-2.2,2.75-.08,1.27-.49,1.2-1.49.17-1.4-2.25-2.35-.02-2.52-.52-2.33,1.52-1.8.1-.74-1.4-.55-2.37-.39-1.3-2.08-.66,1.25-.77-.12-1.33-3.22-1.88-1.9-.05-1.51,18.44-3.73.02-1.91.74-1.27.58-.08-.37-.5.97-1.3-.4-.49.85-.24.09-1.15.59-.16-.11-.41.31-.43.26.18-.02-.59.38.29.86-1.21,1.5.37,1.15-.32,1.2,1.28.99.18.31,1.33-.19.74-.55.43.47,1.64-1.01,1.1-.15.82,1.29.22.17.37,1.5.54.5-.08.92,1.3,1.03.32.61.57-.03-.78.47-.78-.28-.71.68-.73.8.68,1.07-.07.75.43.66,1.52.85.49,1.24-.41.83-.83,2.34.65-.41-.56-.04-.77.45.16.54-.61.26.09-.65,1.18v1.23s.3.34.3.34l-.38,1.08,3.07,2.95-.9.63.73,1.92.57.67.99.09.66-.44.67.14,1.57-.72.75.27.91,1.85-.29.75.16.65,1.16.55.5,1.21,1.11.14.46-.55.51-.19.21.23.3,1.42-.18,1.45,1.15,1.87-1.06.97-.26.81-.88.33-1.18-.08-.56.69,1.73,1.73-.4.85,1.53,6.12,2.19-3.14,2.29,1.4,2.55-.16.41-.36.07-2.24.75.11.51-.28.09-.8,1.37.53.46.95.89.1.43.41,1.58-1.26.92,1.13-.5.43.54.86-1.41,2.23-.83.66v.67l-1.45,2,.31.7-.87.87,1.18,1.2.46,1.25-.45.04-.13.68-1.28,1.31-1.02.51-.91-.39-.28.22-.39.83.06,1.12-.42.45.31.52-.3.24.14.61.45.04Z"/>
  </g>
  <circle fill="red" class="geo-champ-map-area cls-3" id="Groglockner"
          cx="333.71" cy="304.14" r="10"/>
  <image
    id="pin" x="303.71" y="244.14" href="assets/pin.png" width="60" height="60"/>


  <circle class="geo-champ-map-area cls-3" id="Wildspitze" cx="140.88" cy="327.83" r="10"/>
  <circle class="geo-champ-map-area cls-3" id="Similaun" cx="141.8" cy="344.72" r="10"/>
  <circle class="geo-champ-map-area cls-3" id="Grovenediger" cx="297.6" cy="297.43" r="10"/>
  <circle class="geo-champ-map-area cls-3" id="Dachstein" cx="428.82" cy="241.89" r="10"/>
  <circle class="geo-champ-map-area cls-3" id="Hochschwab" cx="586.33" cy="226.1" r="10"/>
  <circle class="geo-champ-map-area cls-3" id="Piz_Buin" data-name="Piz Buin" cx="55.74" cy="328.47" r="10"/>
  <circle class="geo-champ-map-area cls-3" id="Hochknig" cx="369.77" cy="250.48" r="10"/>
  <circle class="geo-champ-map-area cls-3" id="Wilder_Kaiser" data-name="Wilder Kaiser" cx="283.77" cy="230.3" r="10"/>
  <circle class="geo-champ-map-area cls-3" id="Groer_Priel" cx="476.01" cy="202.24" r="10"/>
  <circle class="geo-champ-map-area cls-3" id="Schneeberg" cx="658.22" cy="186.59" r="10"/>
  <circle class="geo-champ-map-area cls-3" id="Hohe_Wand" cx="689.67" cy="176.59" r="10"/>
  <circle class="geo-champ-map-area cls-3" id="Zillertaler_Alpen" cx="251.82" cy="307.43" r="10"/>
  <circle class="geo-champ-map-area cls-3" id="Kitzbheler_Horn" cx="303.8" cy="243.04" r="10"/>
  <circle class="geo-champ-map-area cls-3" id="Schafberg" cx="410.56" cy="194.24" r="10"/>
  <circle class="geo-champ-map-area cls-3" id="Schmittenhhe" cx="345.43" cy="262.01" r="10"/>
</svg>
